<?xml version="1.0" standalone="no"?>
<!DOCTYPE svg PUBLIC "-//W3C//DTD SVG 1.1//EN" "http://www.w3.org/Graphics/SVG/1.1/DTD/svg11.dtd" >
<svg xmlns="http://www.w3.org/2000/svg">
<metadata></metadata>
<defs>
<font id="pf_eurosetbold" horiz-adv-x="1669" >
<font-face units-per-em="2048" ascent="1638" descent="-410" />
<missing-glyph horiz-adv-x="1011" />
<glyph horiz-adv-x="2048" />
<glyph horiz-adv-x="2048" />
<glyph unicode="&#xd;" horiz-adv-x="2048" />
<glyph unicode=" "  horiz-adv-x="1011" />
<glyph unicode="&#x09;" horiz-adv-x="1011" />
<glyph unicode="&#xa0;" horiz-adv-x="1011" />
<glyph unicode="!" horiz-adv-x="1011" d="M291 0v397h430v-397h-430zM297 1073v336h418v-336l-19 -510h-381z" />
<glyph unicode="&#x22;" horiz-adv-x="1366" d="M274 631v778h312v-778h-312zM780 631v778h312v-778h-312z" />
<glyph unicode="#" horiz-adv-x="2023" d="M483 377v233h193l26 187h-159v233h192l53 379h254l-53 -379h137l54 379h254l-54 -379h160v-233h-192l-27 -187h160v-233h-193l-53 -377h-254l53 377h-137l-53 -377h-254l53 377h-160zM930 610h137l27 187h-138z" />
<glyph unicode="$" horiz-adv-x="2023" d="M123 383v59h405v-34q5 -52 26 -74.5t75 -22.5h276v240q-143 0 -253.5 10t-191.5 28t-138.5 49.5t-93.5 67.5t-56 88.5t-27.5 106.5t-7.5 127q0 207 101.5 301t324.5 94h342v121h221v-121h297q66 0 123.5 -11t112.5 -38t95 -68.5t66 -106.5t31 -148q2 -6 2 -19v-18h-393 q0 56 -33.5 75t-142.5 19h-158v-225q116 0 215 -6q278 -20 405 -103t148 -250q7 -51 7 -88q0 -131 -37 -219t-117 -139t-190 -72.5t-271 -21.5h-160v-127h-221v127h-325q-223 0 -340 99t-117 300zM543 1006q0 -25 4 -40t20.5 -31.5t48 -25.5t87.5 -14.5t139 -5.5h63v219 h-223q-102 0 -123 -35q-16 -22 -16 -67zM1126 311h29h166q88 0 125 25t37 102q0 39 -16.5 59.5t-64 31.5t-140.5 14h-15q-8 0 -12 2h-109v-234z" />
<glyph unicode="%" horiz-adv-x="2729" d="M47 780v334q0 309 324 309h463q181 0 262.5 -69t81.5 -232v-254q0 -117 -20.5 -188.5t-76 -115t-140 -59.5t-224.5 -16h-324q-191 0 -268.5 76t-77.5 215zM330 870q0 -83 30.5 -115t116.5 -32h271q86 0 116.5 32t30.5 115v183q0 85 -28 111t-107 26h-295q-79 0 -107 -26 t-28 -111v-183zM1018 -16l500 1439h186l-500 -1439h-186zM1552 274v334q0 310 324 310h463q181 0 262.5 -69.5t81.5 -232.5v-254q0 -117 -20.5 -188t-76 -115t-140 -59.5t-224.5 -15.5h-324q-191 0 -268.5 75.5t-77.5 214.5zM1835 365q0 -84 30.5 -116t116.5 -32h271 q86 0 116.5 32t30.5 116v182q0 85 -28 111t-107 26h-295q-79 0 -107 -26t-28 -111v-182z" />
<glyph unicode="&#x26;" horiz-adv-x="2172" d="M137 383v109q0 170 67 236.5t255 70.5v4q-55 34 -84 59t-45 61t-19.5 71.5t-3.5 107.5t7 118t29.5 84.5t57 59.5t97.5 35.5t143 19t201 4.5h352q101 0 174 -3t137 -11.5t106.5 -21.5t77 -35.5t53.5 -50t32 -69.5t17.5 -89t4.5 -113v-78h-393v68q0 61 -44.5 87t-158.5 26 h-313q-98 0 -130 -16.5t-32 -69.5q0 -44 17 -64.5t81 -52.5l740 -363v189h368v-199q0 -68 -16 -162l264 -131l-125 -264l-260 129q-31 -48 -84.5 -78.5t-126 -44t-135 -18t-148.5 -4.5h-612q-133 0 -228.5 18t-171 61.5t-113.5 123t-38 196.5zM543 471q0 -25 4 -53 q11 -74 63.5 -101.5t157.5 -27.5h651q11 0 11 10l-699 340q-21 8 -67 8h-19q-10 0 -16 -2q-41 -7 -63.5 -45t-22.5 -129z" />
<glyph unicode="'" horiz-adv-x="708" d="M199 631v778h311v-778h-311z" />
<glyph unicode="(" horiz-adv-x="1011" d="M186 408v593q0 118 30 201t89 131t137.5 69t184.5 21h262v-315h-148q-84 0 -122.5 -31t-38.5 -114v-517q0 -83 38.5 -115t122.5 -32h148v-315h-262q-216 0 -328.5 97.5t-112.5 326.5z" />
<glyph unicode=")" horiz-adv-x="1011" d="M123 -16v315h147q84 0 123 32t39 115v517q0 83 -39 114t-123 31h-147v315h262q107 0 185 -21t137 -69t88.5 -130.5t29.5 -201.5v-593q0 -229 -111.5 -326.5t-328.5 -97.5h-262z" />
<glyph unicode="*" horiz-adv-x="1216" d="M152 1053l278 -90l-170 -213l176 -115l185 219l172 -221l170 117l-164 211l274 75l-67 201l-287 -88v264h-215v-264l-277 88z" />
<glyph unicode="+" horiz-adv-x="1228" d="M96 358v269h377v358h283v-358h377v-269h-377v-358h-283v358h-377z" />
<glyph unicode="," horiz-adv-x="1011" d="M227 -125q76 0 115 10t51.5 28t12.5 54v33h-115v397h430v-352q0 -68 -3.5 -116t-14 -90.5t-26 -70t-44 -50t-62.5 -34.5t-87 -19.5t-113 -9.5t-144 -1v221z" />
<glyph unicode="-" horiz-adv-x="909" d="M168 317v351h573v-351h-573z" />
<glyph unicode="." horiz-adv-x="1011" d="M291 0v397h430v-397h-430z" />
<glyph unicode="/" horiz-adv-x="757" d="M-117 -16l680 1439h311l-679 -1439h-312z" />
<glyph unicode="0" horiz-adv-x="2023" d="M96 479v393q0 163 32.5 267t111 168.5t198.5 90t307 25.5h533q187 0 307 -25.5t198.5 -90t111 -168.5t32.5 -267v-393q0 -270 -128 -382.5t-402 -112.5h-770q-136 0 -233 25.5t-165 83.5t-100.5 153.5t-32.5 232.5zM539 553q0 -117 54.5 -168t207.5 -51h422 q153 0 207.5 51t54.5 168v303q0 57 -11 95.5t-40 67t-80.5 41.5t-130.5 13h-422q-79 0 -130.5 -13t-80.5 -41.5t-40 -67t-11 -95.5v-303z" />
<glyph unicode="1" horiz-adv-x="2023" d="M348 1020l629 389h543v-1409h-418v1069l-547 -332z" />
<glyph unicode="2" horiz-adv-x="2023" d="M143 0v479q0 135 100 215t312 92l520 31q255 18 305 40t50 124q0 34 -2 51.5t-12.5 36t-28 26.5t-53.5 15t-84 8.5t-124 1.5h-301q-148 0 -200 -32.5t-52 -139.5v-61h-430v166q0 205 135 287.5t447 82.5h598q128 0 219.5 -15.5t153.5 -45.5t98 -80.5t51 -115.5t15 -156 q0 -111 -7.5 -181.5t-33.5 -129.5t-64.5 -91.5t-111.5 -57t-163 -35t-231 -17.5l-469 -23q-72 -2 -114.5 -11.5t-66 -31.5t-31 -50.5t-7.5 -78.5h107h1212v-303h-1737z" />
<glyph unicode="3" horiz-adv-x="2023" d="M133 350v150h430v-62q0 -89 39.5 -119t157.5 -30h543q52 0 83 6.5t47.5 24t21.5 39.5t5 61q0 75 -32.5 106t-131.5 31h-467v291h424q107 0 140.5 29t33.5 108q0 78 -48.5 106.5t-157.5 28.5h-451q-111 0 -151.5 -27.5t-40.5 -105.5v-61h-431v78q0 57 5.5 103.5t19.5 85.5 t32 69t48 53.5t62 40t80 29t96.5 20t117 11.5t135 5.5t156.5 1.5h305q137 0 233 -7t171.5 -25t121.5 -45.5t76 -72.5t41 -101.5t11 -137.5q0 -62 -3.5 -103t-16 -74t-26.5 -52t-46.5 -37t-64 -29t-89.5 -28v-6q91 -15 144.5 -37t84 -63t40 -94t9.5 -142q0 -108 -22.5 -177.5 t-80.5 -118t-157 -69t-254 -20.5h-755q-106 0 -188.5 16.5t-153 56t-108.5 113.5t-38 180z" />
<glyph unicode="4" horiz-adv-x="2023" d="M111 283v514l1058 612h525v-811h219v-315h-219v-283h-430v283h-1153zM467 598h797v471l-797 -467v-4z" />
<glyph unicode="5" horiz-adv-x="2023" d="M143 358v82h418q0 -47 8.5 -74t36 -45.5t74 -25t125.5 -6.5h426q77 0 123 9.5t70 35t31 57t7 88.5v19q0 14 -2 20q-4 88 -58.5 112.5t-203.5 24.5h-479q-113 0 -133 -92h-393v846h1615v-303h-1222v-246q2 0 2 2q50 45 108.5 65.5t171.5 20.5h514q249 0 373.5 -92.5 t124.5 -316.5v-90q0 -64 -6.5 -117t-22 -95.5t-34.5 -76.5t-50 -59.5t-63 -44.5t-79 -31.5t-91.5 -20.5t-108 -12.5t-121.5 -6t-137 -1.5h-356q-105 0 -180 3.5t-149 13t-124 26.5t-93.5 44.5t-68.5 67t-39 94t-14 125.5z" />
<glyph unicode="6" horiz-adv-x="2023" d="M158 479v393q0 163 32.5 267t111 168.5t198.5 90t307 25.5h473q126 0 222.5 -16t157 -44t99 -69.5t53.5 -87t15 -102.5v-113h-393q0 31 -9 49q-17 44 -67.5 62t-149.5 18h-399q-116 0 -168.5 -41t-52.5 -127v-168l2 2q55 55 131.5 80t204.5 25h424q108 0 189.5 -11 t138 -34.5t93.5 -54.5t58 -77.5t29 -97t8 -118.5v-123q0 -74 -11.5 -130.5t-31.5 -98t-55.5 -70.5t-75 -47t-98.5 -28t-118 -13.5t-141 -3.5h-647q-274 0 -402 112.5t-128 382.5zM588 446q0 -92 46 -124.5t177 -32.5h414q131 0 177 32.5t46 124.5q0 89 -47 121.5t-184 32.5 h-398q-136 0 -183.5 -32.5t-47.5 -121.5z" />
<glyph unicode="7" horiz-adv-x="2023" d="M162 1059v350h1700v-315l-944 -1094h-529l920 1059h-1147z" />
<glyph unicode="8" horiz-adv-x="2023" d="M137 326v120q0 119 58.5 179.5t205.5 83.5v4q-256 45 -256 295v79q0 48 4 86t16 70t26 55.5t42 42.5t56 32t75.5 22.5t92.5 14.5t116 8t136.5 4t162.5 1h451q119 0 203.5 -9t153.5 -31t110 -60t62.5 -95.5t21.5 -137.5v-93q0 -62 -9.5 -105t-35.5 -80.5t-76 -60 t-127 -32.5v-2q127 -32 193.5 -100.5t66.5 -200.5v-113q0 -171 -109 -245t-325 -74h-856q-239 0 -349 84t-110 258zM567 430q0 -54 11.5 -82t50 -43.5t114.5 -15.5h537q76 0 114.5 15.5t50 43.5t11.5 82q0 59 -13 86t-55 40t-133 13h-487q-91 0 -133 -13t-55 -40t-13 -86z M575 991q0 -64 40 -96.5t135 -32.5h520q95 0 134.5 32.5t39.5 96.5q0 129 -139 129h-590q-140 0 -140 -129z" />
<glyph unicode="9" horiz-adv-x="2023" d="M152 305v96h417q0 -13 4 -41q10 -41 50 -56t125 -15h473q116 0 168.5 41t52.5 127v168l-2 -2q-55 -55 -131.5 -80t-204.5 -25h-424q-108 0 -189.5 11t-138 34.5t-93.5 54.5t-58 77.5t-29 97t-8 118.5v121q0 74 11.5 131t31.5 98.5t55.5 70.5t75 47t98.5 27.5t117.5 13 t140.5 3.5h647q274 0 402.5 -112.5t128.5 -380.5v-393q0 -162 -32.5 -266.5t-111 -169.5t-198.5 -91t-307 -26h-551q-267 0 -393.5 73t-126.5 248zM582 963q0 -91 47 -122.5t184 -31.5h395q139 0 186.5 31.5t47.5 122.5q0 92 -46 124.5t-177 32.5h-414q-131 0 -177 -32.5 t-46 -124.5z" />
<glyph unicode=":" horiz-adv-x="1011" d="M291 0v397h430v-397h-430zM291 596v395h430v-395h-430z" />
<glyph unicode=";" horiz-adv-x="1011" d="M227 -125q76 0 115 10t51.5 28t12.5 54v33h-115v397h430v-352q0 -68 -3.5 -116t-14 -90.5t-26 -70t-44 -50t-62.5 -34.5t-87 -19.5t-113 -9.5t-144 -1v221zM291 596v395h430v-395h-430z" />
<glyph unicode="&#x3c;" horiz-adv-x="1228" d="M96 369v245l1037 385v-254l-691 -253l691 -252v-256z" />
<glyph unicode="=" horiz-adv-x="1228" d="M96 119h1037v268h-1037v-268zM96 598h1037v268h-1037v-268z" />
<glyph unicode="&#x3e;" horiz-adv-x="1228" d="M96 -16v256l690 252l-690 253v254l1037 -385v-245z" />
<glyph unicode="?" d="M80 913v140q0 138 51.5 216.5t176.5 116t349 37.5h349q73 0 131 -3.5t117 -13t103 -26t83 -43t63.5 -62t38.5 -85.5t14 -113v-102q0 -55 -5 -98.5t-18 -77.5t-27.5 -59t-40.5 -44t-50 -31t-63.5 -22t-73.5 -16t-86 -13q-133 -16 -186 -36.5t-66 -53.5q-4 -28 -4 -39h-393 v78q0 76 14 124t53 83.5t101.5 56t165.5 35.5q197 31 248 53.5t51 92.5q0 79 -42.5 108t-162.5 29h-316q-194 0 -194 -174v-58h-381zM530 0v373h431v-373h-431z" />
<glyph unicode="@" horiz-adv-x="2011" d="M70 225q0 -279 127 -395.5t438 -116.5h536v191h-536q-80 0 -131 7t-96 27t-69.5 58t-38 99t-13.5 151v547q0 75 6 127.5t22.5 93t40.5 64.5t65 39t91 20.5t123 5.5h743q73 0 123 -5.5t91 -20.5t65 -39t40.5 -64.5t22.5 -93t6 -127.5v-383q0 -85 -18 -114.5t-76 -29.5h-49 v359q0 152 -90 228.5t-264 76.5h-391q-84 0 -141.5 -5t-108 -19.5t-80.5 -39.5t-48.5 -64.5t-23.5 -96.5q-2 -6 -2 -21v-22h326q0 3 1 8t1 8q4 33 30 42t99 9h196q96 0 127 -24t31 -89v-71v-2q-34 31 -80 44.5t-121 18.5h-149q-63 0 -103.5 -0.5t-90 -3t-80 -7.5t-66 -13.5 t-56.5 -21t-42 -30.5t-31.5 -41.5t-17.5 -54.5t-7 -69v-70q0 -74 22.5 -123t69.5 -74.5t104 -35t140 -9.5h230q123 0 174.5 20t120.5 89l2 2v-96q72 0 214.5 -1t215.5 -1q101 0 175.5 73.5t74.5 206.5v467q0 201 -52 314t-174 164.5t-340 51.5h-743q-164 0 -271 -27 t-173.5 -91.5t-93.5 -162.5t-27 -249v-588zM727 330q0 55 35 77.5t137 22.5h150q117 0 157 -14t45 -51q10 -42 -12.5 -68.5t-61.5 -33.5t-82.5 -11t-74.5 0h-21h-96q-87 0 -127.5 14.5t-46.5 46.5q-2 4 -2 17z" />
<glyph unicode="A" horiz-adv-x="2226" d="M8 0l803 1409h592l815 -1409h-506l-141 250h-922l-133 -250h-508zM819 553h582l-295 528z" />
<glyph unicode="B" horiz-adv-x="2174" d="M154 0v1409h1308q279 0 409 -84.5t130 -286.5q0 -70 -8 -106q-8 -53 -27 -91t-49 -62t-60.5 -37.5t-74.5 -24.5v-6q116 -13 176.5 -62t83.5 -147q12 -56 12 -129q0 -91 -22.5 -158t-60.5 -108t-97.5 -65t-123.5 -33t-148 -9h-1448zM608 338h815q80 0 122 23t42 81 q0 24 -6 45q-23 72 -158 72h-815v-221zM608 850h805q66 0 99.5 25t33.5 83q0 39 -12 60q-26 51 -121 51h-805v-219z" />
<glyph unicode="C" horiz-adv-x="2174" d="M121 494v419q0 123 29.5 212.5t81.5 146.5t136 91t180 47t226 13h535q208 0 341 -18.5t215 -64t118 -112t47 -171.5q6 -49 6 -164h-455v39q0 72 -52.5 101.5t-160.5 29.5h-496q-70 0 -121 -13t-82 -36t-49.5 -60t-25 -77.5t-6.5 -96.5v-151q0 -81 10.5 -131.5t39 -86.5 t79 -50.5t131.5 -14.5h485q144 0 198.5 24.5t65.5 110.5q2 10 2 29v31h455v-133q0 -77 -12.5 -136t-48.5 -115.5t-95.5 -92.5t-158.5 -58t-232 -22h-733q-129 0 -226 13.5t-180.5 47.5t-135.5 91.5t-81.5 146.5t-29.5 211z" />
<glyph unicode="D" horiz-adv-x="2277" d="M170 0v1409h1372q228 0 362.5 -50.5t193.5 -156.5t59 -284v-429q0 -177 -59 -282.5t-193.5 -156t-362.5 -50.5h-1372zM625 362h807q150 0 210 52.5t60 199.5v191q0 148 -59.5 201t-210.5 53h-807v-697z" />
<glyph unicode="E" horiz-adv-x="1923" d="M154 0v1409h1622v-328h-1168v-225h1106v-293h-1106v-225h1194v-338h-1648z" />
<glyph unicode="F" horiz-adv-x="1822" d="M154 0v1409h1548v-340h-1094v-262h1043v-326h-1043v-481h-454z" />
<glyph unicode="G" horiz-adv-x="2174" d="M121 494v419q0 123 29.5 212.5t81.5 146.5t136 91t180 47t226 13h684q109 0 195 -11t147.5 -30t105.5 -50.5t71 -66t42.5 -83.5t21 -97t5.5 -112v-45h-447q0 51 -14.5 83t-47 48t-70 21t-97.5 5h-493q-90 0 -142.5 -11.5t-87 -45t-47 -88t-12.5 -147.5v-177 q0 -93 12.5 -147.5t47 -88t87 -45t142.5 -11.5h485q41 0 71 2.5t63 12t54 25.5t35 44.5t14 68.5v41h-565v291h1020v-401q0 -76 -9.5 -134t-34 -102t-52.5 -75t-79.5 -52t-99.5 -33t-128.5 -18.5t-150 -8t-179.5 -1.5h-547q-129 0 -226 13.5t-180.5 47.5t-135.5 91.5 t-81.5 146.5t-29.5 211z" />
<glyph unicode="H" horiz-adv-x="2174" d="M154 0v1409h454v-502h959v502h454v-1409h-454v532h-959v-532h-454z" />
<glyph unicode="I" horiz-adv-x="811" d="M178 0v1409h455v-1409h-455z" />
<glyph unicode="J" horiz-adv-x="1718" d="M51 438v168h443v-123q0 -80 46 -114.5t152 -34.5h180q124 0 181 29t57 120v926h455v-963q0 -115 -27.5 -196.5t-76.5 -133t-130.5 -81t-175 -40.5t-225.5 -11h-297q-319 0 -450.5 103t-131.5 351z" />
<glyph unicode="K" horiz-adv-x="2123" d="M154 0v1409h454v-518h213l574 518h618l-4 -4l-799 -686l897 -719h-643l-145 121l-510 420h-201v-541h-454z" />
<glyph unicode="L" d="M154 0v1409h454v-1047h1022v-362h-1476z" />
<glyph unicode="M" horiz-adv-x="2732" d="M154 0v1409h698l514 -907l514 907h698v-1409h-442v1012h-4l-596 -1012h-340l-596 1012h-4v-1012h-442z" />
<glyph unicode="N" horiz-adv-x="2324" d="M154 0v1409h704l854 -1024h4v1024h455v-1409h-705l-854 1024h-4v-1024h-454z" />
<glyph unicode="O" horiz-adv-x="2277" d="M121 494v419q0 123 29.5 212.5t81.5 146.5t136 91t180 47t226 13h729q130 0 226.5 -13t180 -47t136 -91t82 -146.5t29.5 -212.5v-419q0 -122 -29.5 -211t-82 -146.5t-136 -91.5t-180.5 -47.5t-226 -13.5h-729q-129 0 -226 13.5t-180.5 47.5t-135.5 91.5t-81.5 146.5 t-29.5 211zM588 629q0 -81 10.5 -131.5t39 -86.5t79 -50.5t131.5 -14.5h582q81 0 131.5 14.5t79 50.5t39 86.5t10.5 131.5v151q0 70 -11.5 118.5t-41.5 87.5t-87.5 58t-144.5 19h-533q-70 0 -121 -13t-82 -36t-49.5 -60t-25 -77.5t-6.5 -96.5v-151z" />
<glyph unicode="P" horiz-adv-x="2021" d="M154 0v1409h1239q126 0 221 -24.5t154.5 -65.5t96 -104t50.5 -132t14 -157v-121q0 -66 -12.5 -127.5t-43 -121.5t-77 -104t-120 -71t-165.5 -27h-903v-354h-454zM608 705h707q75 0 111 40.5t36 108.5v55q0 75 -42.5 112.5t-143.5 37.5h-668v-354z" />
<glyph unicode="Q" horiz-adv-x="2277" d="M121 494v419q0 123 29.5 212.5t81.5 146.5t136 91t180 47t226 13h729q130 0 226.5 -13t180 -47t136 -91t82 -146.5t29.5 -212.5v-419q0 -122 -28 -211t-84.5 -146.5t-133 -90.5t-182.5 -48l415 -234l-178 -307l-956 527h-236q-129 0 -226 13.5t-180.5 47.5t-135.5 91.5 t-81.5 146.5t-29.5 211zM588 629q0 -81 10.5 -131.5t39 -86.5t79 -50.5t131.5 -14.5h582q81 0 131.5 14.5t79 50.5t39 86.5t10.5 131.5v151q0 70 -11.5 118.5t-41.5 87.5t-87.5 58t-144.5 19h-533q-70 0 -121 -13t-82 -36t-49.5 -60t-25 -77.5t-6.5 -96.5v-151z" />
<glyph unicode="R" horiz-adv-x="2072" d="M154 0v1409h1280q104 0 187.5 -14.5t154 -49.5t117.5 -90t73.5 -138.5t26.5 -192.5v-99q0 -69 -12.5 -126t-43.5 -110t-80.5 -90.5t-128 -63.5t-182.5 -34l578 -401h-680l-594 397h-242v-397h-454zM606 737h766q95 0 125.5 26.5t30.5 76.5v82h2q0 65 -36 100t-138 35 h-750v-320z" />
<glyph unicode="S" horiz-adv-x="2123" d="M127 365v95h455q0 -23 4 -54q11 -67 53.5 -87t138.5 -20h557q34 0 58.5 2t52 9t44.5 19t28.5 34.5t11.5 54.5q0 61 -29 84q-43 34 -216 42q-108 5 -394 5q-158 0 -275 6q-110 7 -186.5 19.5t-131.5 36t-87.5 52.5t-51 77.5t-24.5 100.5t-6 132q0 65 3 106t15.5 93.5 t36.5 85t67.5 67.5t106.5 54t156 31.5t213 12.5h635q111 0 197.5 -10.5t146.5 -28t102.5 -47.5t67 -61t38 -77.5t17.5 -88.5t4 -102v-45h-454q0 45 -5 67.5t-27 43t-66.5 27.5t-122.5 7h-504q-172 0 -172 -109q0 -90 83 -107.5t459 -17.5q357 0 480 -14q211 -25 294 -102 t95 -258q2 -10 2 -35v-39q0 -73 -6.5 -128t-24.5 -101t-43.5 -77.5t-69.5 -56.5t-96 -39.5t-130 -23.5t-164.5 -12.5t-205.5 -3.5h-550q-162 0 -266.5 16.5t-177.5 59.5t-104.5 116.5t-31.5 188.5z" />
<glyph unicode="T" horiz-adv-x="1822" d="M45 1059v350h1733v-350h-639v-1059h-455v1059h-639z" />
<glyph unicode="U" horiz-adv-x="2174" d="M154 502v907h454v-813q0 -136 57.5 -193t196.5 -57h451q139 0 196.5 57t57.5 193v813h454v-907q0 -265 -147 -391.5t-461 -126.5h-651q-314 0 -461 126.5t-147 391.5z" />
<glyph unicode="V" horiz-adv-x="2174" d="M10 1409l797 -1409h561l797 1409h-498l-580 -1047l-579 1047h-498z" />
<glyph unicode="W" horiz-adv-x="2732" d="M14 1409l482 -1409h522l346 930h4l346 -930h522l482 1409h-445l-315 -1036h-4l-377 1036h-422l-377 -1036h-4l-315 1036h-445z" />
<glyph unicode="X" horiz-adv-x="2228" d="M14 0l727 707l-675 702h587l461 -494l461 494h588l-676 -702l727 -707h-610l-490 512l-489 -512h-611z" />
<glyph unicode="Y" horiz-adv-x="2125" d="M14 1409h549l500 -575l500 575h548l-821 -920v-489h-454v489z" />
<glyph unicode="Z" horiz-adv-x="1923" d="M82 0h1759v338h-1085v4l1061 727v340h-1706v-340h1034v-2l-1063 -729v-338z" />
<glyph unicode="[" horiz-adv-x="1011" d="M186 0v1409h703v-328h-309v-753h309v-328h-703z" />
<glyph unicode="\" horiz-adv-x="757" d="M-117 1423h312l679 -1439h-311z" />
<glyph unicode="]" horiz-adv-x="1011" d="M123 0v328h309v753h-309v328h702v-1409h-702z" />
<glyph unicode="^" horiz-adv-x="1228" d="M133 698l356 711h250l357 -711h-273l-209 443l-208 -443h-273z" />
<glyph unicode="_" horiz-adv-x="1024" d="M0 -145v-99h1024v99h-1024z" />
<glyph unicode="`" horiz-adv-x="708" d="M-152 1542l435 -385h325l-262 385h-498z" />
<glyph unicode="a" horiz-adv-x="1566" d="M70 266v82q0 45 8 81t20.5 64t37 49.5t49.5 36.5t65 25.5t77.5 16.5t93.5 9t105 4t121 1q76 0 174 -4q87 -5 141.5 -22t94.5 -54v2v84q0 76 -36.5 104.5t-148.5 28.5h-231q-83 0 -113 -11t-36 -50q0 -3 -1.5 -9.5t-1.5 -9.5h-380v27q0 16 2 24q5 67 26 113t56 75.5t94 46 t126.5 22.5t166.5 6h456q204 0 309 -90t105 -267v-651h-373v113l-2 -2q-57 -57 -95.5 -81.5t-93.5 -35t-155 -10.5h-268q-97 0 -163.5 11t-121.5 41t-81.5 87t-26.5 143zM451 307q0 -14 2 -18q8 -39 54.5 -55.5t149.5 -16.5h113q99 0 159.5 6.5t89.5 22t37.5 32.5t8.5 46 q0 18 -2 24q-3 29 -22.5 44.5t-70 23.5t-145.5 8h-174q-120 0 -160 -26t-40 -91z" />
<glyph unicode="b" d="M135 0v1409h393v-600h4q10 56 43 96.5t83 62t105.5 31t121.5 9.5h116q105 0 187.5 -10.5t141 -28.5t100.5 -48t67.5 -62.5t39.5 -79t19 -90.5t5 -103v-178q0 -59 -5 -103.5t-19 -91t-39.5 -79.5t-67.5 -63t-100.5 -48t-141 -28.5t-187.5 -10.5h-114q-169 0 -256 50 t-123 148h-4v-182h-369zM504 446q0 -107 56 -144.5t181 -37.5h232q69 0 111.5 10.5t63 35.5t26.5 53t6 75v117q0 47 -6 74.5t-26.5 52t-63 35t-111.5 10.5h-232q-125 0 -181 -37.5t-56 -144.5v-99z" />
<glyph unicode="c" horiz-adv-x="1566" d="M86 455v96q0 110 23.5 191.5t63.5 132t102.5 80.5t132 41.5t161.5 11.5h443q226 0 347.5 -81t121.5 -247v-90h-381v16q-5 66 -56 93.5t-172 27.5h-151q-125 0 -183.5 -35.5t-58.5 -116.5v-131q0 -91 54.5 -129.5t154.5 -38.5h201q211 0 211 115v23h381v-86 q0 -78 -26.5 -138.5t-70 -98.5t-104 -62.5t-124 -34.5t-134.5 -10h-401q-62 0 -112 3.5t-107.5 15.5t-101 32.5t-85.5 56t-69 84.5t-43.5 120t-16.5 159z" />
<glyph unicode="d" d="M109 408v178q0 59 4.5 103t19 90.5t39.5 79t67 62.5t100.5 48t141 28.5t187.5 10.5h116q65 0 120.5 -9.5t106.5 -31t84.5 -62t41.5 -96.5h4v600h393v-1409h-369v182h-4q-36 -98 -123 -148t-256 -50h-114q-146 0 -249 20.5t-163 54.5t-93.5 91t-43.5 115t-10 143zM489 438 q0 -47 6 -75t26.5 -53t63 -35.5t111.5 -10.5h232q125 0 181 37.5t56 144.5v99q0 107 -56 144.5t-181 37.5h-232q-69 0 -111.5 -10.5t-63 -35t-26.5 -52t-6 -74.5v-117z" />
<glyph unicode="e" horiz-adv-x="1519" d="M86 455v96q0 110 23.5 191.5t63.5 132t102.5 80.5t132 41.5t161.5 11.5h275q131 0 222.5 -11.5t165 -40t116 -77.5t64.5 -122t22 -177v-168h-955v-60q0 -76 57 -105.5t185 -29.5h121q62 0 105 6.5t65.5 16t35 26.5t15 30t2.5 34h369v-41q0 -74 -27.5 -128.5t-72.5 -88 t-114 -53.5t-141 -27.5t-164 -7.5h-294q-62 0 -112 3.5t-107.5 15.5t-101 32.5t-85.5 56t-69 84.5t-43.5 120t-16.5 159zM479 635h574q0 17 -4 45q-12 56 -72 75t-211 19h-68q-39 0 -55 -2q-104 -7 -134 -34t-30 -103z" />
<glyph unicode="f" horiz-adv-x="1011" d="M33 735v256h180v78q0 198 112.5 276t368.5 78q62 0 157 -4t110 -4v-254q-19 1 -52.5 2.5t-60 2.5t-47.5 1q-118 0 -156.5 -26t-38.5 -103v-47h373v-256h-373v-735h-393v735h-180z" />
<glyph unicode="g" d="M109 483v135q0 114 30 190.5t93 120t148 61.5t208 18h229q148 0 209.5 -27t134.5 -125h4v135h369v-930q0 -69 -10.5 -122t-45.5 -109t-95 -92.5t-164.5 -60t-247.5 -23.5h-434q-105 0 -177 13.5t-128 47t-82.5 95t-26.5 153.5h72h333v-8q6 -68 97 -68h284q133 0 194.5 49 t61.5 170v68q0 -1 -1 -2t-1 -2q-61 -58 -130.5 -79t-219.5 -21h-207q-141 0 -238 26t-153.5 80t-81 128t-24.5 179zM489 537q0 -63 11 -97q17 -57 68.5 -79.5t160.5 -22.5h193q143 0 191 42t48 157v36q0 15 -4 35q-11 72 -62.5 101.5t-172.5 29.5h-193q-144 0 -192 -42 t-48 -160z" />
<glyph unicode="h" d="M135 0v1409h393v-575h4q52 98 151 136t267 38q156 0 244 -15q73 -13 130 -39.5t106.5 -73.5t76.5 -126t27 -185v-569h-393v569q0 148 -254 148h-90q-128 0 -198.5 -56t-70.5 -161v-500h-393z" />
<glyph unicode="i" horiz-adv-x="708" d="M158 0v991h393v-991h-393zM158 1116v293h393v-293h-393z" />
<glyph unicode="j" horiz-adv-x="708" d="M12 -86q36 -4 41 -4q56 0 80.5 24t24.5 74v983h393v-1054q0 -152 -99.5 -217.5t-283.5 -65.5q-32 0 -89.5 5t-66.5 5v250zM158 1116v293h393v-293h-393z" />
<glyph unicode="k" horiz-adv-x="1566" d="M135 0v1409h393v-743h74l346 325h506h10l-524 -465l588 -526h-502l-98 92l-322 305h-78v-397h-393z" />
<glyph unicode="l" horiz-adv-x="708" d="M158 0v1409h393v-1409h-393z" />
<glyph unicode="m" horiz-adv-x="2478" d="M117 0v991h375v-194h4q17 106 107.5 158.5t240.5 52.5h149q276 0 387 -232q50 134 128 183t245 49h121q259 0 373 -113.5t114 -335.5v-559h-393v532q0 56 -9 88t-38 56t-80.5 32.5t-138.5 8.5h-37q-23 0 -33 -2q-105 -6 -150.5 -44t-45.5 -124v-547h-394v563 q0 63 -22 94.5t-81.5 45.5t-180.5 14q-60 0 -101 -8q-77 -14 -112 -55.5t-35 -129.5v-524h-393z" />
<glyph unicode="n" d="M135 0v991h393v-157h4q52 98 151 136t267 38q163 0 252 -17q71 -13 127 -40t104 -74.5t74.5 -125.5t26.5 -182v-569h-393v569q0 148 -254 148h-90q-128 0 -198.5 -56t-70.5 -161v-500h-393z" />
<glyph unicode="o" d="M109 377v237q0 394 432 394h587q433 0 433 -394v-237q0 -393 -433 -393h-587q-432 0 -432 393zM502 449q0 -103 64 -144t204 -41h94q130 0 193 14.5t86.5 47.5t23.5 102v135q0 69 -23.5 102t-86.5 47.5t-193 14.5h-94q-140 0 -204 -41t-64 -143v-94z" />
<glyph unicode="p" d="M135 -346v1337h381v-147h4q42 76 126.5 120t242.5 44h112q105 0 187.5 -10.5t141 -28.5t100.5 -48t67.5 -62.5t39.5 -79t19 -90.5t5 -103v-178q0 -59 -5 -103.5t-19 -91t-39.5 -79.5t-67.5 -63t-100.5 -48t-141 -28.5t-187.5 -10.5h-79q-170 0 -247.5 36t-142.5 152h-4 v-518h-393zM528 446q0 -107 56 -144.5t182 -37.5h207q69 0 111.5 10.5t63 35.5t26.5 53t6 75v117q0 47 -6 74.5t-26.5 52t-63 35t-111.5 10.5h-207q-126 0 -182 -37.5t-56 -144.5v-99z" />
<glyph unicode="q" d="M109 408v178q0 59 4.5 103t19 90.5t39.5 79t67 62.5t100.5 48t141 28.5t187.5 10.5h112q158 0 242.5 -44t126.5 -120h4v147h381v-1337h-393v518h-4q-65 -116 -142 -152t-247 -36h-80q-146 0 -249 20.5t-163 54.5t-93.5 91t-43.5 115t-10 143zM489 438q0 -47 6 -75 t26.5 -53t63 -35.5t111.5 -10.5h207q126 0 182 37.5t56 144.5v99q0 107 -56 144.5t-182 37.5h-207q-69 0 -111.5 -10.5t-63 -35t-26.5 -52t-6 -74.5v-117z" />
<glyph unicode="r" horiz-adv-x="1366" d="M135 0v991h369v-188h4q57 205 383 205q69 0 115 -9q134 -20 200 -91.5t80 -207.5q4 -54 4 -84q0 -18 -4 -88h-340v23q-2 89 -42 127.5t-146 38.5q-34 0 -68 -6q-162 -23 -162 -162v-549h-393z" />
<glyph unicode="s" horiz-adv-x="1619" d="M96 279v30h406q1 -8 4 -20t4 -15q9 -23 27.5 -34.5t66.5 -17t141 -5.5h140q139 0 186 15t47 59v6q0 42 -35.5 59t-134.5 17h-368q-188 0 -288.5 31.5t-144 105.5t-43.5 213q0 13 5 53q8 59 36.5 101.5t69.5 67.5t102.5 39.5t123 19t143.5 4.5h374q263 0 375 -53.5 t129 -192.5q4 -32 4 -55h-393q-2 2 -2 4t-2 4q-17 38 -47.5 48.5t-122.5 10.5l-225 2q-54 0 -92 -6q-41 -6 -56.5 -22.5t-15.5 -47.5q0 -19 6 -28q12 -20 58.5 -25.5t170.5 -5.5h273q98 0 175 -9t129.5 -24t90.5 -39.5t59 -49.5t33 -60.5t15.5 -66.5t3.5 -73v-4 q0 -68 -10 -116t-35.5 -86t-65 -62t-104 -39.5t-147 -21.5t-197.5 -6h-373q-255 0 -366 59t-128 211q-2 8 -2 25z" />
<glyph unicode="t" horiz-adv-x="1366" d="M33 723v268h196v234h394v-234h610v-268h-610v-381q0 -52 36.5 -71t114.5 -19q4 0 13.5 1t13.5 1q78 4 106.5 29t28.5 88v67h344v-121q0 -150 -110 -241.5t-334 -91.5h-156q-451 0 -451 346v393h-196z" />
<glyph unicode="u" d="M135 422v569h393v-569q0 -146 254 -146h90h25q118 5 181 59.5t63 156.5v499h393v-991h-393v160h-4q-52 -100 -150.5 -138t-267.5 -38q-157 0 -252 18q-56 11 -102.5 28.5t-90 50t-73.5 77.5t-48 112t-18 152z" />
<glyph unicode="v" horiz-adv-x="1519" d="M12 991l502 -991h492l501 991h-428l-319 -700l-320 700h-428z" />
<glyph unicode="w" horiz-adv-x="2277" d="M12 991l402 -991h524l199 537h4l198 -537h525l401 991h-430l-238 -723h-4l-274 723h-361l-274 -723h-4l-238 723h-430z" />
<glyph unicode="x" horiz-adv-x="1519" d="M12 0h498l250 334l250 -334h497l-446 522l409 469h-509l-201 -268l-201 268h-510l410 -469z" />
<glyph unicode="y" horiz-adv-x="1466" d="M6 991l479 -948h140q0 -81 -64.5 -112t-191.5 -31h-33v-238q11 -1 39.5 -3t58 -3.5t62.5 -1.5q154 0 244.5 37t133.5 127l586 1173h-426l-301 -690l-301 690h-426z" />
<glyph unicode="z" horiz-adv-x="1314" d="M53 0h1209v256h-629v4l600 440v291h-1147v-256h602v-4l-635 -479v-252z" />
<glyph unicode="{" horiz-adv-x="1011" d="M45 621v178q141 0 141 92v309q0 52 27.5 93.5t70 66t88 37t87.5 12.5h311v-211h-72q-39 0 -64 -8.5t-36 -24.5t-14.5 -30t-3.5 -33v-244q0 -41 -24 -70.5t-62 -44.5t-74 -21.5t-70 -6.5v-6q30 -2 45.5 -4t48.5 -7.5t52 -16t41 -27t32.5 -43t10.5 -60.5v-244 q0 -19 3.5 -33t14.5 -30t36 -24.5t64 -8.5h72v-211h-311q-58 0 -118 20.5t-107.5 70t-47.5 118.5v307q0 33 -14.5 55.5t-38.5 32.5t-44.5 13.5t-43.5 3.5z" />
<glyph unicode="|" horiz-adv-x="454" d="M86 -16v1439h283v-1439h-283z" />
<glyph unicode="}" horiz-adv-x="1011" d="M242 0v211h71q39 0 64.5 8.5t36.5 24.5t14.5 30t3.5 33v244q0 41 24 70.5t62 44.5t74 21.5t70 6.5v6q-30 2 -45.5 4t-48.5 7.5t-52 16t-41 27t-32.5 43t-10.5 60.5v244q0 19 -3.5 33t-14.5 30t-36.5 24.5t-64.5 8.5h-71v211h311q58 0 118 -21t107 -70.5t47 -117.5v-307 q0 -32 14.5 -54.5t38.5 -32.5t45.5 -14t43.5 -4v-180q-142 0 -142 -90v-309q0 -52 -27 -94t-69.5 -66t-88 -36.5t-87.5 -12.5h-311z" />
<glyph unicode="~" horiz-adv-x="1228" d="M141 524q88 168 256 168q86 0 236 -65q54 -23 79.5 -34t61.5 -21.5t60 -10.5q38 1 74 24.5t55.5 48t50.5 68.5l73 -243q-27 -38 -48 -62t-53 -51.5t-71 -41t-84 -13.5q-19 0 -36 2t-37.5 8t-31.5 8.5t-35.5 14t-29.5 14t-34 17.5t-31 16q-101 53 -207 53t-174 -141z" />
<glyph unicode="&#xa3;" horiz-adv-x="2023" d="M90 539v268h178q-8 91 -8 188q0 79 15.5 141.5t42.5 107.5t71 77t92.5 51.5t116 31t133.5 15.5t152 4h428q143 0 247 -20.5t171.5 -57.5t107.5 -96.5t56 -129.5t16 -165h-406q0 99 -30 132.5t-123 33.5h-484q-103 0 -135.5 -26t-32.5 -101v-186h650v-268h-650 q0 -41 -6 -76q-16 -89 -100 -141v-7h1341v-315h-1808v315q86 0 121 39t35 127v29q0 19 -2 29h-189z" />
<glyph unicode="&#xa5;" horiz-adv-x="2023" d="M25 1409h467l520 -653l520 653h467l-547 -643h221v-234h-420l-32 -38v-60h452v-233h-452v-201h-418v201h-453v233h453v60l-33 38h-420v234h221z" />
<glyph unicode="&#xa6;" d="M109 377v237q0 394 432 394h587q433 0 433 -394v-237q0 -393 -433 -393h-587q-432 0 -432 393zM317 1165q9 62 35 122.5t66.5 112.5t100.5 84t128 32t207 -52q10 -4 31 -11.5t31.5 -11.5t28 -10t28 -9t24 -6.5t24 -5t19.5 -1.5q46 0 79.5 32t39.5 75h195 q-9 -69 -31.5 -126.5t-60.5 -104t-98 -73t-136 -26.5q-87 0 -205 43q-13 4 -50.5 17.5t-53 18t-39.5 10t-41 5.5q-50 0 -85.5 -33.5t-41.5 -81.5h-195zM502 449q0 -103 64 -144t204 -41h94q130 0 193 14.5t86.5 47.5t23.5 102v135q0 69 -23.5 102t-86.5 47.5t-193 14.5h-94 q-140 0 -204 -41t-64 -143v-94z" />
<glyph unicode="&#xa7;" d="M166 696q0 109 53.5 156.5t159.5 60.5v5q-80 35 -116 89t-36 140q0 148 80.5 212t241.5 64h536q312 0 312 -231v-37h-307v21q-4 35 -27.5 48t-79.5 13h-338q-52 0 -75 -16t-23 -56q0 -64 141 -84l494 -69q179 -24 250 -86t71 -174q0 -203 -221 -213v-4q168 -67 168 -263 q0 -43 -5 -77t-18.5 -68.5t-38 -59t-62 -44t-93 -29.5t-127.5 -10h-578q-154 0 -235.5 59t-81.5 209v41h319v-49q0 -72 164 -72h316q52 0 86 21t34 65q0 47 -27 64t-106 30l-608 107q-96 16 -159.5 77.5t-63.5 159.5zM436 788q0 -51 31.5 -76.5t89.5 -37.5l473 -86 q77 -15 119 -15q48 0 72 31t24 76q0 39 -25.5 58.5t-76.5 27.5l-594 104q-27 9 -49 9q-25 0 -44.5 -29.5t-19.5 -61.5z" />
<glyph unicode="&#xa8;" horiz-adv-x="708" d="M-121 1186v291h393v-291h-393zM436 1186v291h393v-291h-393z" />
<glyph unicode="&#xa9;" horiz-adv-x="1638" d="M61 705q0 147 60 280t161.5 229t242 152.5t294.5 56.5t294.5 -56.5t242 -152.5t161.5 -229t60 -280q0 -196 -101.5 -362t-276 -262.5t-380.5 -96.5t-380.5 96.5t-276 262.5t-101.5 362zM307 705q0 -230 144 -370t368 -140t368 140t144 370t-144 369.5t-368 139.5 t-368 -139.5t-144 -369.5zM418 702q0 178 110.5 292t296.5 114q143 0 239 -74.5t122 -214.5h-197q-24 103 -155 103q-89 0 -136 -57.5t-47 -157.5q0 -98 49 -160t127 -62q65 0 108 29t50 86h209q-24 -146 -125 -224.5t-240 -78.5q-183 0 -297 116t-114 289z" />
<glyph unicode="&#xab;" horiz-adv-x="1062" d="M-20 489l247 -339h346l-245 339l245 347h-346zM489 489l248 -339h346l-245 339l245 347h-346z" />
<glyph unicode="&#xad;" horiz-adv-x="909" d="M168 317h573v351h-573v-351z" />
<glyph unicode="&#xae;" horiz-adv-x="1638" d="M61 705q0 147 60 280t161.5 229t242 152.5t294.5 56.5t294.5 -56.5t242 -152.5t161.5 -229t60 -280q0 -196 -101.5 -362t-276 -262.5t-380.5 -96.5t-380.5 96.5t-276 262.5t-101.5 362zM307 705q0 -230 144 -370t368 -140t368 140t144 370t-144 369.5t-368 139.5 t-368 -139.5t-144 -369.5zM516 326v739h301q174 0 256 -52t82 -182q0 -190 -201 -200l174 -305h-198l-156 292h-74v-292h-184zM700 758h150q57 0 82.5 19.5t25.5 72.5q0 74 -149 74h-109v-166z" />
<glyph unicode="&#xb0;" horiz-adv-x="819" d="M74 1106q0 132 98 224.5t238 92.5q139 0 237 -92.5t98 -224.5q0 -135 -97.5 -227.5t-237.5 -92.5t-238 92.5t-98 227.5zM270 1106q0 -57 40 -95t100 -38t99.5 38t39.5 95q0 56 -39.5 93.5t-99.5 37.5t-100 -37.5t-40 -93.5z" />
<glyph unicode="&#xb1;" horiz-adv-x="1228" d="M96 0v268h1037v-268h-1037zM96 516v268h377v201h283v-201h377v-268h-377v-201h-283v201h-377z" />
<glyph unicode="&#xb7;" horiz-adv-x="1011" d="M260 674q0 95 72.5 164t173.5 69t173.5 -69t72.5 -164q0 -97 -72.5 -165.5t-173.5 -68.5t-173.5 68.5t-72.5 165.5z" />
<glyph unicode="&#xbb;" horiz-adv-x="1062" d="M-20 150h346l247 344l-247 342h-346l245 -342zM489 150h347l247 344l-247 342h-347l246 -342z" />
<glyph unicode="&#xbd;" horiz-adv-x="2904" d="M166 1176l407 233h390v-840h-308v607l-356 -201zM662 -16l1163 1439h250l-1155 -1439h-258zM1645 0v287q0 162 268 182l299 18q58 3 92 5t62.5 6t41 8t21.5 12.5t10.5 17t1.5 23.5q0 40 -10.5 55t-49.5 22t-136 7h-117q-97 0 -130.5 -20t-33.5 -84v-7h-319v101 q0 122 86.5 171.5t289.5 49.5h389q139 0 215.5 -26.5t106 -78.5t29.5 -145q0 -66 -5 -109t-21 -78t-38.5 -54.5t-65.5 -34t-95 -21t-132 -10.5l-305 -14q-88 -4 -115.5 -19.5t-27.5 -52.5h47h772v-211h-1130z" />
<glyph unicode="&#xc4;" horiz-adv-x="2226" d="M8 0l803 1409h592l815 -1409h-506l-141 250h-922l-133 -250h-508zM639 1544v293h393v-293h-393zM819 553h582l-295 528zM1196 1544v293h393v-293h-393z" />
<glyph unicode="&#xc5;" horiz-adv-x="2226" d="M8 0l803 1409h592l815 -1409h-506l-141 250h-922l-133 -250h-508zM819 553h582l-295 528zM823 1794q0 115 85.5 196t205.5 81t205.5 -81t85.5 -196t-85.5 -195.5t-205.5 -80.5t-205.5 80.5t-85.5 195.5zM983 1794q0 -51 38.5 -88t92.5 -37t92.5 37t38.5 88t-38.5 88 t-92.5 37t-92.5 -37t-38.5 -88z" />
<glyph unicode="&#xc7;" horiz-adv-x="2174" d="M121 494v419q0 123 29.5 212.5t81.5 146.5t136 91t180 47t226 13h535q208 0 341 -18.5t215 -64t118 -112t47 -171.5q6 -49 6 -164h-455v39q0 72 -52.5 101.5t-160.5 29.5h-496q-70 0 -121 -13t-82 -36t-49.5 -60t-25 -77.5t-6.5 -96.5v-151q0 -81 10.5 -131.5t39 -86.5 t79 -50.5t131.5 -14.5h485q144 0 198.5 24.5t65.5 110.5q2 10 2 29v31h455v-133q0 -77 -12.5 -136t-48.5 -115.5t-95.5 -92.5t-158.5 -58t-232 -22h-155l-260 -232h-326l158 232h-150q-129 0 -226 13.5t-180.5 47.5t-135.5 91.5t-81.5 146.5t-29.5 211z" />
<glyph unicode="&#xc9;" horiz-adv-x="1923" d="M154 0v1409h1622v-328h-1168v-225h1106v-293h-1106v-225h1194v-338h-1648zM709 1518l262 385h497l-434 -385h-325z" />
<glyph unicode="&#xd1;" horiz-adv-x="2324" d="M154 0v1409h704l854 -1024h4v1024h455v-1409h-705l-854 1024h-4v-1024h-454zM645 1526q9 62 35 122.5t66.5 112t100.5 83.5t128 32q71 0 207 -51q11 -4 42 -15.5t44.5 -16.5t35.5 -12t37 -9.5t27 -2.5q46 0 79.5 32t39.5 75h194q-19 -147 -98 -238.5t-227 -91.5 q-87 0 -205 43q-13 4 -50.5 17.5t-53 18t-39.5 10t-41 5.5q-50 0 -85.5 -33t-41.5 -81h-195z" />
<glyph unicode="&#xd6;" horiz-adv-x="2277" d="M121 494v419q0 123 29.5 212.5t81.5 146.5t136 91t180 47t226 13h729q130 0 226.5 -13t180 -47t136 -91t82 -146.5t29.5 -212.5v-419q0 -122 -29.5 -211t-82 -146.5t-136 -91.5t-180.5 -47.5t-226 -13.5h-729q-129 0 -226 13.5t-180.5 47.5t-135.5 91.5t-81.5 146.5 t-29.5 211zM588 629q0 -81 10.5 -131.5t39 -86.5t79 -50.5t131.5 -14.5h582q81 0 131.5 14.5t79 50.5t39 86.5t10.5 131.5v151q0 70 -11.5 118.5t-41.5 87.5t-87.5 58t-144.5 19h-533q-70 0 -121 -13t-82 -36t-49.5 -60t-25 -77.5t-6.5 -96.5v-151zM664 1544v293h393v-293 h-393zM1221 1544v293h393v-293h-393z" />
<glyph unicode="&#xdc;" horiz-adv-x="2174" d="M154 502v907h454v-813q0 -136 57.5 -193t196.5 -57h451q139 0 196.5 57t57.5 193v813h454v-907q0 -265 -147 -391.5t-461 -126.5h-651q-314 0 -461 126.5t-147 391.5zM612 1544v293h394v-293h-394zM1169 1544v293h394v-293h-394z" />
<glyph unicode="&#xdf;" d="M135 0v1022q0 104 35.5 182.5t99 125.5t145 70t179.5 23h393q256 0 364.5 -87.5t108.5 -272.5v-27q0 -14 -2 -22q-6 -86 -43 -135t-117 -82v-2q126 -24 187 -94t61 -203v-105q0 -57 -3.5 -98t-15 -86.5t-31.5 -77t-54.5 -61t-83 -47.5t-118 -28.5t-157.5 -10.5 q-178 0 -350 12v270q154 -14 185 -14q235 0 235 156v106q0 78 -55 103.5t-217 25.5h-148v246h164q89 0 135.5 31t46.5 108q0 79 -41.5 103t-146.5 24h-139q-96 0 -142.5 -15t-64 -50.5t-17.5 -110.5v-979h-393z" />
<glyph unicode="&#xe0;" horiz-adv-x="1566" d="M70 266v82q0 45 8 81t20.5 64t37 49.5t49.5 36.5t65 25.5t77.5 16.5t93.5 9t105 4t121 1q76 0 174 -4q87 -5 141.5 -22t94.5 -54v2v84q0 76 -36.5 104.5t-148.5 28.5h-231q-83 0 -113 -11t-36 -50q0 -3 -1.5 -9.5t-1.5 -9.5h-380v27q0 16 2 24q5 67 26 113t56 75.5t94 46 t126.5 22.5t166.5 6h456q204 0 309 -90t105 -267v-651h-373v113l-2 -2q-57 -57 -95.5 -81.5t-93.5 -35t-155 -10.5h-268q-97 0 -163.5 11t-121.5 41t-81.5 87t-26.5 143zM279 1542h497l262 -385h-325zM451 307q0 -14 2 -18q8 -39 54.5 -55.5t149.5 -16.5h113q99 0 159.5 6.5 t89.5 22t37.5 32.5t8.5 46q0 18 -2 24q-3 29 -22.5 44.5t-70 23.5t-145.5 8h-174q-120 0 -160 -26t-40 -91z" />
<glyph unicode="&#xe2;" horiz-adv-x="1566" d="M70 266v82q0 45 8 81t20.5 64t37 49.5t49.5 36.5t65 25.5t77.5 16.5t93.5 9t105 4t121 1q76 0 174 -4q87 -5 141.5 -22t94.5 -54v86q0 49 -10 72q-13 35 -52.5 48t-122.5 13h-231q-83 0 -113 -11t-36 -50q0 -3 -1.5 -9.5t-1.5 -9.5h-380v27q0 16 2 24q5 67 26 113 t56 75.5t94 46t126.5 22.5t166.5 6h456q204 0 309 -90t105 -267v-651h-373v113l-2 -2q-57 -57 -95.5 -81.5t-93.5 -35t-155 -10.5h-268q-97 0 -163.5 11t-121.5 41t-81.5 87t-26.5 143zM270 1157l305 385h414l309 -385h-352l-164 211l-166 -211h-346zM451 307q0 -14 2 -18 q8 -39 54.5 -55.5t149.5 -16.5h113q99 0 159.5 6.5t89.5 22t37.5 32.5t8.5 46q0 18 -2 24q-3 29 -22.5 44.5t-70 23.5t-145.5 8h-174q-120 0 -160 -26t-40 -91z" />
<glyph unicode="&#xe4;" horiz-adv-x="1566" d="M70 266v82q0 45 8 81t20.5 64t37 49.5t49.5 36.5t65 25.5t77.5 16.5t93.5 9t105 4t121 1q76 0 174 -4q87 -5 141.5 -22t94.5 -54v2v84q0 76 -36.5 104.5t-148.5 28.5h-231q-83 0 -113 -11t-36 -50q0 -3 -1.5 -9.5t-1.5 -9.5h-380v27q0 16 2 24q5 67 26 113t56 75.5t94 46 t126.5 22.5t166.5 6h456q204 0 309 -90t105 -267v-651h-373v113l-2 -2q-57 -57 -95.5 -81.5t-93.5 -35t-155 -10.5h-268q-97 0 -163.5 11t-121.5 41t-81.5 87t-26.5 143zM309 1186v291h393v-291h-393zM451 307q0 -14 2 -18q8 -39 54.5 -55.5t149.5 -16.5h113q99 0 159.5 6.5 t89.5 22t37.5 32.5t8.5 46q0 18 -2 24q-3 29 -22.5 44.5t-70 23.5t-145.5 8h-174q-120 0 -160 -26t-40 -91zM866 1186v291h394v-291h-394z" />
<glyph unicode="&#xe7;" horiz-adv-x="1566" d="M86 455v96q0 110 23.5 191.5t63.5 132t102.5 80.5t132 41.5t161.5 11.5h443q226 0 347.5 -81t121.5 -247v-90h-381v16q-5 66 -56 93.5t-172 27.5h-151q-125 0 -183.5 -35.5t-58.5 -116.5v-131q0 -91 54.5 -129.5t154.5 -38.5h201q211 0 211 115v23h381v-86 q0 -78 -26.5 -138.5t-70 -98.5t-104 -62.5t-124 -34.5t-134.5 -10h-21l-296 -265h-326l180 265q-80 3 -142.5 15t-127 43t-107 81t-69.5 134.5t-27 197.5z" />
<glyph unicode="&#xe8;" horiz-adv-x="1519" d="M86 455v96q0 110 23.5 191.5t63.5 132t102.5 80.5t132 41.5t161.5 11.5h275q131 0 222.5 -11.5t165 -40t116 -77.5t64.5 -122t22 -177v-168h-955v-60q0 -76 57 -105.5t185 -29.5h121q62 0 105 6.5t65.5 16t35 26.5t15 30t2.5 34h369v-41q0 -74 -27.5 -128.5t-72.5 -88 t-114 -53.5t-141 -27.5t-164 -7.5h-294q-62 0 -112 3.5t-107.5 15.5t-101 32.5t-85.5 56t-69 84.5t-43.5 120t-16.5 159zM254 1542h498l262 -385h-326zM479 635h574q0 17 -4 45q-12 56 -72 75t-211 19h-68q-39 0 -55 -2q-104 -7 -134 -34t-30 -103z" />
<glyph unicode="&#xe9;" horiz-adv-x="1519" d="M86 455v96q0 110 23.5 191.5t63.5 132t102.5 80.5t132 41.5t161.5 11.5h275q131 0 222.5 -11.5t165 -40t116 -77.5t64.5 -122t22 -177v-168h-955v-60q0 -76 57 -105.5t185 -29.5h121q62 0 105 6.5t65.5 16t35 26.5t15 30t2.5 34h369v-41q0 -74 -27.5 -128.5t-72.5 -88 t-114 -53.5t-141 -27.5t-164 -7.5h-294q-62 0 -112 3.5t-107.5 15.5t-101 32.5t-85.5 56t-69 84.5t-43.5 120t-16.5 159zM479 635h574q0 17 -4 45q-12 56 -72 75t-211 19h-68q-39 0 -55 -2q-104 -7 -134 -34t-30 -103zM506 1157l262 385h498l-435 -385h-325z" />
<glyph unicode="&#xea;" horiz-adv-x="1519" d="M86 455v96q0 110 23.5 191.5t63.5 132t102.5 80.5t132 41.5t161.5 11.5h275q131 0 222.5 -11.5t165 -40t116 -77.5t64.5 -122t22 -177v-168h-955v-60q0 -76 57 -105.5t185 -29.5h121q62 0 105 6.5t65.5 16t35 26.5t15 30t2.5 34h369v-41q0 -74 -27.5 -128.5t-72.5 -88 t-114 -53.5t-141 -27.5t-164 -7.5h-294q-62 0 -112 3.5t-107.5 15.5t-101 32.5t-85.5 56t-69 84.5t-43.5 120t-16.5 159zM246 1157l305 385h414l309 -385h-352l-164 211l-166 -211h-346zM479 635h574q0 17 -4 45q-12 56 -72 75t-211 19h-68q-39 0 -55 -2q-104 -7 -134 -34 t-30 -103z" />
<glyph unicode="&#xeb;" horiz-adv-x="1519" d="M86 455v96q0 110 23.5 191.5t63.5 132t102.5 80.5t132 41.5t161.5 11.5h275q131 0 222.5 -11.5t165 -40t116 -77.5t64.5 -122t22 -177v-168h-955v-60q0 -76 57 -105.5t185 -29.5h121q62 0 105 6.5t65.5 16t35 26.5t15 30t2.5 34h369v-41q0 -74 -27.5 -128.5t-72.5 -88 t-114 -53.5t-141 -27.5t-164 -7.5h-294q-62 0 -112 3.5t-107.5 15.5t-101 32.5t-85.5 56t-69 84.5t-43.5 120t-16.5 159zM285 1186v291h393v-291h-393zM479 635h574q0 17 -4 45q-12 56 -72 75t-211 19h-68q-39 0 -55 -2q-104 -7 -134 -34t-30 -103zM842 1186v291h393v-291 h-393z" />
<glyph unicode="&#xee;" horiz-adv-x="708" d="M-160 1157l305 385h414l309 -385h-352l-164 211l-166 -211h-346zM158 0v991h393v-991h-393z" />
<glyph unicode="&#xef;" horiz-adv-x="708" d="M-121 1186v291h393v-291h-393zM158 0v991h393v-991h-393zM436 1186v291h393v-291h-393z" />
<glyph unicode="&#xf4;" d="M109 377v237q0 394 432 394h587q433 0 433 -394v-237q0 -393 -433 -393h-587q-432 0 -432 393zM322 1157l305 385h413l310 -385h-353l-163 211l-166 -211h-346zM502 449q0 -103 64 -144t204 -41h94q130 0 193 14.5t86.5 47.5t23.5 102v135q0 69 -23.5 102t-86.5 47.5 t-193 14.5h-94q-140 0 -204 -41t-64 -143v-94z" />
<glyph unicode="&#xf6;" d="M109 377v237q0 394 432 394h587q433 0 433 -394v-237q0 -393 -433 -393h-587q-432 0 -432 393zM360 1186v291h394v-291h-394zM502 449q0 -103 64 -144t204 -41h94q130 0 193 14.5t86.5 47.5t23.5 102v135q0 69 -23.5 102t-86.5 47.5t-193 14.5h-94q-140 0 -204 -41 t-64 -143v-94zM918 1186v291h393v-291h-393z" />
<glyph unicode="&#xf7;" horiz-adv-x="1228" d="M96 375v233h1037v-233h-1037zM424 90q0 74 56 127t134 53t134.5 -53t56.5 -127q0 -75 -56.5 -128.5t-134.5 -53.5t-134 53.5t-56 128.5zM424 895q0 74 56 127t134 53t134.5 -53t56.5 -127t-56.5 -127t-134.5 -53t-134 53t-56 127z" />
<glyph unicode="&#xf9;" d="M135 422v569h393v-569q0 -146 254 -146h90q129 0 199 55.5t70 160.5v499h393v-991h-393v160h-4q-52 -100 -150.5 -138t-267.5 -38q-157 0 -252 18q-56 11 -102.5 28.5t-90 50t-73.5 77.5t-48 112t-18 152zM330 1542h497l263 -385h-326z" />
<glyph unicode="&#xfb;" d="M135 422v569h393v-569q0 -146 254 -146h90q129 0 199 55.5t70 160.5v499h393v-991h-393v160h-4q-52 -100 -150.5 -138t-267.5 -38q-157 0 -252 18q-56 11 -102.5 28.5t-90 50t-73.5 77.5t-48 112t-18 152zM322 1157l305 385h413l310 -385h-353l-163 211l-166 -211h-346z " />
<glyph unicode="&#xfc;" d="M135 422v569h393v-569q0 -146 254 -146h90q129 0 199 55.5t70 160.5v499h393v-991h-393v160h-4q-52 -100 -150.5 -138t-267.5 -38q-157 0 -252 18q-56 11 -102.5 28.5t-90 50t-73.5 77.5t-48 112t-18 152zM360 1186v291h394v-291h-394zM918 1186v291h393v-291h-393z" />
<glyph unicode="&#x153;" horiz-adv-x="2578" d="M86 377v237q0 394 432 394h436q88 0 156 -13t107.5 -32.5t66 -46t36 -48.5t13.5 -45h4q21 94 115 139.5t287 45.5h164q131 0 222.5 -11.5t164.5 -40t115.5 -77.5t64.5 -122t22 -177v-168h-954v-60q0 -76 57 -105.5t185 -29.5h121q62 0 105 6.5t65.5 16t35 26.5t15 30 t2.5 34h368v-41q0 -74 -27 -128.5t-72.5 -88t-114 -53.5t-140.5 -27.5t-164 -7.5h-280q-120 0 -195.5 19t-109.5 50.5t-52 83.5h-4q-11 -31 -38 -56.5t-75 -48t-129 -35.5t-188 -13h-385q-432 0 -432 393zM479 449q0 -103 64.5 -144t204.5 -41h94q130 0 193 14.5t86.5 47.5 t23.5 102v135q0 69 -23.5 102t-86.5 47.5t-193 14.5h-94q-140 0 -204.5 -41t-64.5 -143v-94zM1538 635h573q0 17 -4 45q-12 56 -71.5 75t-210.5 19h-68q-39 0 -57 -2q-102 -7 -132 -35t-30 -102z" />
<glyph unicode="&#x2000;" horiz-adv-x="1035" />
<glyph unicode="&#x2001;" horiz-adv-x="2071" />
<glyph unicode="&#x2002;" horiz-adv-x="1035" />
<glyph unicode="&#x2003;" horiz-adv-x="2071" />
<glyph unicode="&#x2004;" horiz-adv-x="690" />
<glyph unicode="&#x2005;" horiz-adv-x="517" />
<glyph unicode="&#x2006;" horiz-adv-x="345" />
<glyph unicode="&#x2007;" horiz-adv-x="345" />
<glyph unicode="&#x2008;" horiz-adv-x="258" />
<glyph unicode="&#x2009;" horiz-adv-x="414" />
<glyph unicode="&#x200a;" horiz-adv-x="115" />
<glyph unicode="&#x2010;" horiz-adv-x="909" d="M168 317v351h573v-351h-573z" />
<glyph unicode="&#x2011;" horiz-adv-x="909" d="M168 317v351h573v-351h-573z" />
<glyph unicode="&#x2012;" horiz-adv-x="909" d="M168 317v351h573v-351h-573z" />
<glyph unicode="&#x2013;" horiz-adv-x="1024" d="M0 369h1024v245h-1024v-245z" />
<glyph unicode="&#x2014;" horiz-adv-x="2048" d="M0 369h2048v245h-2048v-245z" />
<glyph unicode="&#x2018;" horiz-adv-x="708" d="M109 631v459q0 89 15.5 145t58.5 97.5t119.5 59t197.5 17.5h100v-223h-72q-108 0 -108 -99v-83h106v-373h-417z" />
<glyph unicode="&#x2019;" horiz-adv-x="708" d="M109 631v221h71q109 0 109 100v82h-107v375h418v-229v-230q0 -89 -15.5 -145t-58.5 -97.5t-119.5 -59t-197.5 -17.5h-100z" />
<glyph unicode="&#x201c;" horiz-adv-x="1366" d="M131 631v459q0 89 15.5 145t58.5 97.5t119.5 59t197.5 17.5h101v-223h-72q-109 0 -109 -99v-83h107v-373h-418zM743 631v459q0 89 16 145t58.5 97.5t119.5 59t198 17.5h100v-223h-72q-108 0 -108 -99v-83h106v-373h-418z" />
<glyph unicode="&#x201d;" horiz-adv-x="1366" d="M131 631v221h72q108 0 108 100v82h-106v375h418v-229v-230q0 -89 -16 -145t-58.5 -97.5t-119.5 -59t-198 -17.5h-100zM743 631v221h72q109 0 109 100v82h-107v375h418v-229v-230q0 -89 -15.5 -145t-58.5 -97.5t-119.5 -59t-197.5 -17.5h-101z" />
<glyph unicode="&#x2022;" horiz-adv-x="1024" d="M141 705q0 146 108.5 249t262.5 103t262.5 -103t108.5 -249t-108.5 -249.5t-262.5 -103.5t-262.5 103.5t-108.5 249.5z" />
<glyph unicode="&#x2026;" horiz-adv-x="2048" d="M127 0v397h430v-397h-430zM809 0v397h430v-397h-430zM1491 0v397h430v-397h-430z" />
<glyph unicode="&#x202f;" horiz-adv-x="414" />
<glyph unicode="&#x205f;" horiz-adv-x="517" />
<glyph unicode="&#x20ac;" horiz-adv-x="2193" d="M55 463h178q5 -130 45.5 -220t127.5 -155q89 -66 208 -86t322 -20h508q214 0 342 19.5t209 76.5q79 55 114 143t35 223q0 25 -4 103h-461v-17q0 -51 -13 -85t-37.5 -56t-69.5 -33.5t-98 -15.5t-134 -4h-264q-137 0 -213.5 19.5t-112.5 72.5q-12 16 -18 35h790v199h-813 v81h813v201h-796q24 81 99.5 107t250.5 26h364q130 0 183 -37q17 -11 31.5 -41.5t20.5 -55.5l5 -25v-13h457q2 6 2 23v22v35q0 174 -62 272q-4 13 -10 17q-20 28 -35 41q-10 10 -30 26q-76 56 -200 73.5t-345 17.5h-236h-272q-184 0 -307.5 -22.5t-211 -76.5t-130 -144 t-51.5 -226v-19h-181v-201h178v-81h-178v-199z" />
<glyph unicode="&#x2122;" horiz-adv-x="2048" d="M66 1233v176h704v-176h-211v-627h-283v627h-210zM946 606v803h352l164 -463h4l164 463h352v-803h-258v441h-4l-149 -441h-213l-150 441h-4v-441h-258z" />
<glyph unicode="&#xe000;" horiz-adv-x="993" d="M0 0v993h993v-993h-993z" />
</font>
</defs>
</svg>
